<svg xmlns="http://www.w3.org/2000/svg" width="1000" height="1000" viewBox="0 0 1000 1000" version="1.1"><path d="M 446 48.453 C 422.358 53.512, 401.938 68.947, 391.150 89.911 C 389.002 94.085, 386.671 99.300, 385.970 101.500 C 385.038 104.422, 381.001 109.329, 370.985 119.712 C 355.783 135.472, 343.355 150.913, 330.107 170.500 C 299.670 215.502, 277.302 263.312, 262.495 315.014 C 257.394 332.827, 250.946 359.954, 248.949 372 C 248.265 376.125, 247.209 379.996, 246.603 380.603 C 245.996 381.209, 241 382.942, 235.500 384.453 C 197.461 394.904, 158.954 418.014, 127.980 448.982 C 108.339 468.619, 94.639 487.742, 82.064 513.074 C 69.696 537.989, 61.364 564.145, 57.400 590.500 C 54.694 608.487, 54.904 642.724, 57.837 661.703 C 64.390 704.115, 80.642 742.156, 106.833 776.389 C 116.950 789.613, 136.021 809.264, 148.483 819.304 C 191.016 853.574, 245.281 873.021, 298.301 872.992 C 317.468 872.982, 351.023 869.698, 363.500 866.610 C 388.149 860.511, 416.567 848.627, 435.658 836.436 L 440.817 833.142 445.655 839.321 C 452.662 848.269, 472.105 868.075, 482.220 876.570 C 524.034 911.684, 570.788 932.973, 625 941.581 C 641.231 944.158, 679.193 944.658, 697.170 942.532 C 725.530 939.177, 748.868 933.089, 776.081 921.946 C 824.439 902.146, 867.321 868.138, 898.959 824.500 C 923.346 790.861, 941.275 749.596, 948.465 710.553 C 952.219 690.171, 953.343 674.297, 952.708 650.634 C 950.118 554.157, 905.347 472.190, 826.500 419.574 C 775.774 385.724, 720 370.211, 657 372.430 C 635.946 373.171, 619.812 375.457, 599.186 380.621 C 591.313 382.592, 584.728 384.046, 584.552 383.852 C 584.376 383.659, 582.435 379.900, 580.238 375.500 C 560.400 335.773, 546.811 284.581, 541.878 231 C 540.104 211.739, 540.185 164.607, 542.020 148.500 C 545.755 115.695, 542.408 100.145, 527.131 79.327 C 516.914 65.405, 501.677 54.795, 484.973 49.973 C 475.360 47.198, 455.487 46.423, 446 48.453 M 450 98.073 C 439.905 102.625, 431 115.088, 431 124.665 C 431 127.932, 430.017 129.191, 420.098 138.628 C 383.900 173.070, 349.891 223.884, 327.634 276.777 C 312.525 312.685, 299.118 362.939, 293.561 404.500 C 291.373 420.861, 290.999 423, 290.333 423 C 286.734 423, 265.878 426.786, 256.500 429.141 C 228.296 436.225, 204.864 447.861, 181.640 466.315 C 156.127 486.587, 137.673 509.535, 124.420 537.467 C 107.946 572.189, 101.263 608.878, 105.055 643.789 C 110.215 691.309, 128.831 731.078, 161.965 765.367 C 191.749 796.190, 228.292 814.697, 275.162 822.695 C 290.872 825.375, 320.420 825.091, 337.427 822.095 C 378.287 814.897, 415.277 796.313, 443.641 768.733 L 452.782 759.845 455.346 765.446 C 472.959 803.917, 511.823 843.604, 555.500 867.720 C 607.607 896.492, 665.066 903.330, 726 888.013 C 768.556 877.315, 802.646 857.666, 834.633 825.397 C 868.821 790.908, 893.276 744.400, 901.065 699.061 C 911.432 638.721, 898.575 574.476, 866.401 525.839 C 849.984 501.022, 826.020 477.380, 799.446 459.784 C 743.884 422.992, 682.339 411.803, 616.466 426.518 C 602.681 429.597, 581.561 436.347, 571.737 440.812 L 564.975 443.886 559.153 435.193 C 522.697 380.764, 500.549 312.485, 493.888 234 C 492.201 214.120, 492.207 167.687, 493.900 143.500 C 495.194 125.004, 495.170 123.055, 493.573 117.580 C 491.189 109.410, 481.922 99.945, 474.005 97.594 C 466.382 95.330, 455.606 95.545, 450 98.073 M 455.059 113.181 C 448.734 116.483, 446.500 119.962, 446.500 126.508 C 446.500 131.097, 446.932 132.323, 449.500 135.024 C 453.800 139.546, 457.158 141, 463.302 141 C 476.055 141, 483.457 128.948, 477.060 118.598 C 472.726 111.584, 462.798 109.140, 455.059 113.181 M 425 177.764 C 423.625 179.462, 419.085 184.823, 414.911 189.676 C 387.734 221.278, 360.234 271.356, 344.993 317 C 335.415 345.687, 326.833 381.790, 323.529 407.301 C 321.341 424.193, 320.807 422.683, 329.250 423.488 C 352.486 425.701, 384.990 436.516, 408.177 449.748 C 432.143 463.425, 455.254 484.944, 471.267 508.494 L 477.645 517.875 482.657 511.187 C 488.556 503.314, 506.047 483.781, 509.132 481.620 C 511.262 480.128, 511.218 480.023, 503.297 467.808 C 466.818 411.556, 444.168 348.596, 433.572 274 C 429.831 247.666, 428.802 234.277, 428.121 203.088 L 427.500 174.676 425 177.764 M 392.755 328.616 C 390.104 333.048, 376.633 383.069, 377.812 384.104 C 378.190 384.436, 383 386.188, 388.500 387.998 C 394 389.807, 401.832 392.804, 405.904 394.657 C 409.976 396.510, 413.410 397.908, 413.535 397.763 C 413.661 397.618, 411.082 389.485, 407.805 379.690 C 404.528 369.894, 399.920 354.196, 397.565 344.806 C 395.210 335.415, 393.046 328.130, 392.755 328.616 M 488.583 367.122 C 480.379 368.705, 473.456 370.210, 473.199 370.467 C 471.917 371.750, 487.652 408.810, 497.194 426.982 C 514.705 460.331, 535.675 489.758, 556.838 510.685 C 568.152 521.871, 573.251 525, 580.168 525 C 591.265 525, 599.023 513.082, 594.931 502.320 C 594.344 500.774, 588.125 493.657, 581.113 486.504 C 563.193 468.226, 551.154 452.394, 535.597 426.644 C 528.956 415.651, 515.054 387.564, 509.912 374.750 C 507.540 368.837, 505.126 364.055, 504.549 364.122 C 503.972 364.189, 496.788 365.539, 488.583 367.122 M 639.367 437.584 C 622.079 439.935, 585.002 450.501, 589.167 451.889 C 589.860 452.120, 602.929 451.716, 618.208 450.990 C 645.963 449.672, 673.747 450.491, 680.020 452.812 C 682.100 453.581, 681.543 453.945, 675.444 455.802 C 666.774 458.442, 660.420 462.430, 655.696 468.195 C 638.017 489.771, 648.602 519.328, 680.500 537.457 C 710.468 554.489, 728.729 567.792, 746.764 585.731 C 758.873 597.776, 759.077 597.924, 760.191 595.481 C 760.812 594.116, 761.654 593, 762.062 593 C 762.469 593, 763.732 591.425, 764.867 589.500 C 766.003 587.575, 767.510 585.986, 768.216 585.969 C 768.922 585.952, 775.983 574.642, 783.907 560.835 C 791.830 547.028, 799.030 535.540, 799.907 535.306 C 800.783 535.073, 803.743 530.866, 806.485 525.958 C 809.227 521.049, 812.120 516.784, 812.913 516.480 C 813.764 516.153, 816.233 517.701, 818.928 520.249 C 827.998 528.824, 826.527 528.332, 837.335 526.401 L 846.892 524.694 842.196 518.660 C 834.073 508.223, 815.965 490.808, 803.500 481.445 C 770.794 456.877, 740.581 443.998, 701.761 438.076 C 685.573 435.606, 655.642 435.370, 639.367 437.584 M 278.500 438.515 C 252.906 442.584, 230.644 450.842, 209.158 464.236 C 202.308 468.506, 188 478.873, 188 479.567 C 188 479.781, 190.813 478.124, 194.250 475.884 C 202.573 470.462, 222.449 460.879, 233.030 457.188 C 273.986 442.898, 326.925 445.931, 371.500 465.121 C 376.450 467.252, 381.400 468.995, 382.500 468.994 C 385.090 468.993, 404.006 465.327, 404.627 464.706 C 405.301 464.032, 392.958 457.107, 383.500 452.852 C 369.207 446.421, 358.798 443.331, 339.500 439.790 C 324.948 437.120, 291.651 436.424, 278.500 438.515 M 533.119 518.500 C 532.999 525.205, 535.464 535.244, 538.681 541.155 C 552.390 566.343, 587.153 569.208, 609.134 546.964 C 615.994 540.020, 622.250 529.141, 623.487 522 C 623.976 519.173, 623.636 519.578, 621.716 524.108 C 618.699 531.226, 616.426 534.392, 610.061 540.346 C 599.949 549.804, 584.450 554.473, 571.088 552.085 C 562.891 550.620, 551.360 544.476, 545.510 538.457 C 540.888 533.701, 536.774 526.164, 534.616 518.500 L 533.208 513.500 533.119 518.500" stroke="none" fill="#fbbbdb" fill-rule="evenodd"/><path d="M 450 98.073 C 439.905 102.625, 431 115.088, 431 124.665 C 431 127.932, 430.017 129.191, 420.098 138.628 C 383.900 173.070, 349.891 223.884, 327.634 276.777 C 312.525 312.685, 299.118 362.939, 293.561 404.500 C 291.373 420.861, 290.999 423, 290.333 423 C 286.734 423, 265.878 426.786, 256.500 429.141 C 228.296 436.225, 204.864 447.861, 181.640 466.315 C 156.127 486.587, 137.673 509.535, 124.420 537.467 C 107.946 572.189, 101.263 608.878, 105.055 643.789 C 110.215 691.309, 128.831 731.078, 161.965 765.367 C 191.749 796.190, 228.292 814.697, 275.162 822.695 C 290.872 825.375, 320.420 825.091, 337.427 822.095 C 378.287 814.897, 415.277 796.313, 443.641 768.733 L 452.782 759.845 455.346 765.446 C 472.959 803.917, 511.823 843.604, 555.500 867.720 C 607.607 896.492, 665.066 903.330, 726 888.013 C 768.556 877.315, 802.646 857.666, 834.633 825.397 C 868.821 790.908, 893.276 744.400, 901.065 699.061 C 911.432 638.721, 898.575 574.476, 866.401 525.839 C 849.984 501.022, 826.020 477.380, 799.446 459.784 C 743.884 422.992, 682.339 411.803, 616.466 426.518 C 602.681 429.597, 581.561 436.347, 571.737 440.812 L 564.975 443.886 559.153 435.193 C 522.697 380.764, 500.549 312.485, 493.888 234 C 492.201 214.120, 492.207 167.687, 493.900 143.500 C 495.194 125.004, 495.170 123.055, 493.573 117.580 C 491.189 109.410, 481.922 99.945, 474.005 97.594 C 466.382 95.330, 455.606 95.545, 450 98.073 M 455.059 113.181 C 448.734 116.483, 446.500 119.962, 446.500 126.508 C 446.500 131.097, 446.932 132.323, 449.500 135.024 C 453.800 139.546, 457.158 141, 463.302 141 C 476.055 141, 483.457 128.948, 477.060 118.598 C 472.726 111.584, 462.798 109.140, 455.059 113.181 M 425 177.764 C 423.625 179.462, 419.085 184.823, 414.911 189.676 C 387.734 221.278, 360.234 271.356, 344.993 317 C 335.415 345.687, 326.833 381.790, 323.529 407.301 C 321.341 424.193, 320.807 422.683, 329.250 423.488 C 352.486 425.701, 384.990 436.516, 408.177 449.748 C 432.143 463.425, 455.254 484.944, 471.267 508.494 L 477.645 517.875 482.657 511.187 C 488.556 503.314, 506.047 483.781, 509.132 481.620 C 511.262 480.128, 511.218 480.023, 503.297 467.808 C 466.818 411.556, 444.168 348.596, 433.572 274 C 429.831 247.666, 428.802 234.277, 428.121 203.088 L 427.500 174.676 425 177.764 M 488.583 367.122 C 480.379 368.705, 473.456 370.210, 473.199 370.467 C 471.917 371.750, 487.652 408.810, 497.194 426.982 C 514.705 460.331, 535.675 489.758, 556.838 510.685 C 568.152 521.871, 573.251 525, 580.168 525 C 591.265 525, 599.023 513.082, 594.931 502.320 C 594.344 500.774, 588.125 493.657, 581.113 486.504 C 563.193 468.226, 551.154 452.394, 535.597 426.644 C 528.956 415.651, 515.054 387.564, 509.912 374.750 C 507.540 368.837, 505.126 364.055, 504.549 364.122 C 503.972 364.189, 496.788 365.539, 488.583 367.122 M 639.367 437.584 C 622.079 439.935, 585.002 450.501, 589.167 451.889 C 589.860 452.120, 602.929 451.716, 618.208 450.990 C 645.963 449.672, 673.747 450.491, 680.020 452.812 C 682.100 453.581, 681.543 453.945, 675.444 455.802 C 666.774 458.442, 660.420 462.430, 655.696 468.195 C 638.017 489.771, 648.602 519.328, 680.500 537.457 C 710.468 554.489, 728.729 567.792, 746.764 585.731 C 758.873 597.776, 759.077 597.924, 760.191 595.481 C 760.812 594.116, 761.654 593, 762.062 593 C 762.469 593, 763.732 591.425, 764.867 589.500 C 766.003 587.575, 767.510 585.986, 768.216 585.969 C 768.922 585.952, 775.983 574.642, 783.907 560.835 C 791.830 547.028, 799.030 535.540, 799.907 535.306 C 800.783 535.073, 803.743 530.866, 806.485 525.958 C 809.227 521.049, 812.120 516.784, 812.913 516.480 C 813.764 516.153, 816.233 517.701, 818.928 520.249 C 827.998 528.824, 826.527 528.332, 837.335 526.401 L 846.892 524.694 842.196 518.660 C 834.073 508.223, 815.965 490.808, 803.500 481.445 C 770.794 456.877, 740.581 443.998, 701.761 438.076 C 685.573 435.606, 655.642 435.370, 639.367 437.584 M 278.500 438.515 C 252.906 442.584, 230.644 450.842, 209.158 464.236 C 202.308 468.506, 188 478.873, 188 479.567 C 188 479.781, 190.813 478.124, 194.250 475.884 C 202.573 470.462, 222.449 460.879, 233.030 457.188 C 273.986 442.898, 326.925 445.931, 371.500 465.121 C 376.450 467.252, 381.400 468.995, 382.500 468.994 C 385.090 468.993, 404.006 465.327, 404.627 464.706 C 405.301 464.032, 392.958 457.107, 383.500 452.852 C 369.207 446.421, 358.798 443.331, 339.500 439.790 C 324.948 437.120, 291.651 436.424, 278.500 438.515 M 533.119 518.500 C 532.999 525.205, 535.464 535.244, 538.681 541.155 C 552.390 566.343, 587.153 569.208, 609.134 546.964 C 615.994 540.020, 622.250 529.141, 623.487 522 C 623.976 519.173, 623.636 519.578, 621.716 524.108 C 618.699 531.226, 616.426 534.392, 610.061 540.346 C 599.949 549.804, 584.450 554.473, 571.088 552.085 C 562.891 550.620, 551.360 544.476, 545.510 538.457 C 540.888 533.701, 536.774 526.164, 534.616 518.500 L 533.208 513.500 533.119 518.500" stroke="none" fill="#b42821" fill-rule="evenodd"/></svg>