<svg xmlns="http://www.w3.org/2000/svg" width="512" height="512" viewBox="0 0 512 512" version="1.1"><path d="M 66 49.814 C 50.049 53.984, 38.084 65.517, 33.843 80.811 C 30.978 91.144, 30.702 90.717, 40.750 91.518 C 51.378 92.366, 59.308 94.844, 68.250 100.112 C 71.963 102.300, 75 104.249, 75 104.445 C 75 104.640, 71.454 110.358, 67.119 117.150 C 47.783 147.452, 39.977 163.703, 37.933 177.910 C 34.724 200.219, 41.971 229.633, 56.419 252.935 C 57.634 254.896, 59.448 259.650, 60.448 263.500 C 70.170 300.910, 100.989 350.623, 132.298 379.398 C 180.115 423.345, 237.585 454.304, 283.864 461.045 C 297.146 462.980, 324.618 461.753, 340 458.538 C 354.373 455.535, 378.051 447.807, 390.483 442.064 L 399.020 438.120 404.260 440.518 C 431.773 453.107, 457.606 442.816, 464.448 416.540 C 467.422 405.118, 466.190 395.035, 460.440 383.749 C 458.548 380.036, 457 376.315, 457 375.480 C 457 372.859, 461.498 361.058, 468.422 345.511 C 477.926 324.171, 479.162 319.036, 479.735 298.500 C 480.310 277.901, 478.306 264.003, 471.936 244.424 C 459.416 205.941, 436.988 170.950, 403.038 136.934 C 386.197 120.061, 377.566 112.880, 360.105 101.211 C 330.584 81.482, 297.075 68.407, 260.500 62.346 C 245.190 59.808, 213.056 59.801, 201 62.331 C 189.114 64.826, 167.655 72.116, 155.852 77.668 L 145.899 82.349 141.199 80.040 C 134.099 76.552, 127.317 75.025, 118.865 75.012 C 111.641 75.001, 111.134 74.852, 109.445 72.250 C 106.871 68.284, 95.314 56.376, 89.660 51.863 C 85.191 48.296, 84.348 48.004, 78.660 48.058 C 75.272 48.089, 69.575 48.880, 66 49.814 M 52.500 76 C 50.733 77.952, 50.753 78, 53.345 78 C 55.333 78, 56 77.498, 56 76 C 56 74.900, 55.620 74, 55.155 74 C 54.690 74, 53.495 74.900, 52.500 76 M 215.790 74.997 C 202.689 76.246, 187.926 80.337, 170.327 87.594 C 153.215 94.650, 142.522 98, 137.115 98 C 133.759 98, 133.726 97.960, 135.491 96.010 C 137.249 94.067, 137.204 93.983, 133.624 92.487 C 123.164 88.117, 113.971 88.265, 103.321 92.976 C 97.702 95.462, 98.691 96.949, 106 97.002 C 121.174 97.112, 145.119 106.624, 173.800 123.933 C 190.366 133.932, 197.084 139.074, 205.157 147.939 C 222.652 167.150, 233.590 194.106, 238.859 231 C 244.718 272.026, 244.011 315.018, 236.985 344.883 C 231.203 369.456, 220.310 392.602, 209.726 402.800 L 206.302 406.100 205.653 398.300 C 203.919 377.472, 185.467 357.248, 126.500 311.547 C 101.862 292.451, 90.456 283.170, 84.179 277.112 C 77.565 270.729, 77.751 271.526, 87.641 292 C 106.357 330.741, 128.263 358.378, 161.031 384.590 C 207.180 421.506, 256.986 444.663, 296.500 447.576 C 322.326 449.480, 363.025 439.636, 394.026 423.987 L 400.157 420.892 404.980 423.987 C 418.932 432.940, 436.001 433.335, 443.657 424.882 C 448.653 419.366, 450.501 413.983, 450.482 405 C 450.465 397.034, 450.214 396.029, 446.489 389 C 439.883 376.533, 440.824 370.655, 454.162 341.051 C 462.368 322.838, 464.823 314.180, 465.660 300.500 C 468.489 254.246, 442.268 197.996, 395.566 150.134 C 365.621 119.445, 334.892 99.389, 298.305 86.654 C 271.647 77.375, 239.090 72.776, 215.790 74.997 M 98.366 144.281 C 89.610 156.067, 86.041 170.333, 87.492 187.752 L 88.219 196.474 90.502 190.487 C 92.955 184.054, 100.182 170.615, 105.555 162.498 L 108.865 157.496 105.806 148.748 C 104.123 143.937, 102.466 140.014, 102.123 140.031 C 101.780 140.048, 100.090 141.960, 98.366 144.281 M 119.963 161.750 C 131.060 193.611, 139.300 211.607, 150.813 229.135 L 158.456 240.770 166.423 244.635 C 174.026 248.323, 187.803 257.086, 194.750 262.652 L 198 265.256 197.980 261.378 C 197.969 259.245, 197.490 254.575, 196.916 251 C 196.342 247.425, 195.701 241.800, 195.492 238.500 C 194.541 223.507, 191.932 212.850, 186.733 202.713 C 181.772 193.042, 175.723 186.202, 169.371 183.084 C 166.692 181.769, 162.164 178.512, 159.310 175.846 C 156.455 173.181, 153.454 171, 152.641 171 C 150.063 171, 129.532 160.230, 123.140 155.524 C 119.760 153.036, 116.820 151, 116.607 151 C 116.393 151, 117.904 155.838, 119.963 161.750 M 106.412 169.570 C 98.425 182.055, 91.940 199.090, 91.822 207.894 C 91.726 215.135, 102.235 238.578, 112.716 254.500 C 131.040 282.337, 160.039 308.283, 185.329 319.467 L 190.899 321.930 188.896 317.215 C 184.921 307.854, 166.110 271.225, 159 259 C 146.572 237.631, 139.855 227.745, 138.609 228.991 C 137.862 229.738, 137.517 237.180, 137.551 251.800 C 137.602 273.118, 137.896 275.668, 141.440 285.500 C 143.086 290.069, 137.397 281.817, 135.084 276.281 C 131.851 268.544, 131.123 249.769, 133.393 232.684 L 134.963 220.869 132.086 215.170 C 128.003 207.082, 120.987 190.436, 115.997 177 C 113.648 170.675, 111.370 165.104, 110.934 164.620 C 110.498 164.137, 108.463 166.364, 106.412 169.570 M 163.265 248.686 C 163.520 249.134, 166.418 254.225, 169.706 260 C 172.994 265.775, 178.519 275.850, 181.983 282.389 L 188.282 294.277 190.662 290.389 C 191.971 288.250, 193.988 283.424, 195.144 279.664 L 197.247 272.828 192.874 268.368 C 190.468 265.915, 185.350 261.759, 181.500 259.133 C 173.717 253.822, 162.548 247.423, 163.265 248.686" stroke="none" fill="#174123" fill-rule="evenodd"/><path d="M 52.500 76 C 50.733 77.952, 50.753 78, 53.345 78 C 55.333 78, 56 77.498, 56 76 C 56 74.900, 55.620 74, 55.155 74 C 54.690 74, 53.495 74.900, 52.500 76 M 215.790 74.997 C 202.689 76.246, 187.926 80.337, 170.327 87.594 C 153.215 94.650, 142.522 98, 137.115 98 C 133.759 98, 133.726 97.960, 135.491 96.010 C 137.249 94.067, 137.204 93.983, 133.624 92.487 C 123.164 88.117, 113.971 88.265, 103.321 92.976 C 97.702 95.462, 98.691 96.949, 106 97.002 C 121.174 97.112, 145.119 106.624, 173.800 123.933 C 190.366 133.932, 197.084 139.074, 205.157 147.939 C 222.652 167.150, 233.590 194.106, 238.859 231 C 244.718 272.026, 244.011 315.018, 236.985 344.883 C 231.203 369.456, 220.310 392.602, 209.726 402.800 L 206.302 406.100 205.653 398.300 C 203.919 377.472, 185.467 357.248, 126.500 311.547 C 101.862 292.451, 90.456 283.170, 84.179 277.112 C 77.565 270.729, 77.751 271.526, 87.641 292 C 106.357 330.741, 128.263 358.378, 161.031 384.590 C 207.180 421.506, 256.986 444.663, 296.500 447.576 C 322.326 449.480, 363.025 439.636, 394.026 423.987 L 400.157 420.892 404.980 423.987 C 418.932 432.940, 436.001 433.335, 443.657 424.882 C 448.653 419.366, 450.501 413.983, 450.482 405 C 450.465 397.034, 450.214 396.029, 446.489 389 C 439.883 376.533, 440.824 370.655, 454.162 341.051 C 462.368 322.838, 464.823 314.180, 465.660 300.500 C 468.489 254.246, 442.268 197.996, 395.566 150.134 C 365.621 119.445, 334.892 99.389, 298.305 86.654 C 271.647 77.375, 239.090 72.776, 215.790 74.997 M 98.366 144.281 C 89.610 156.067, 86.041 170.333, 87.492 187.752 L 88.219 196.474 90.502 190.487 C 92.955 184.054, 100.182 170.615, 105.555 162.498 L 108.865 157.496 105.806 148.748 C 104.123 143.937, 102.466 140.014, 102.123 140.031 C 101.780 140.048, 100.090 141.960, 98.366 144.281 M 119.963 161.750 C 131.060 193.611, 139.300 211.607, 150.813 229.135 L 158.456 240.770 166.423 244.635 C 174.026 248.323, 187.803 257.086, 194.750 262.652 L 198 265.256 197.980 261.378 C 197.969 259.245, 197.490 254.575, 196.916 251 C 196.342 247.425, 195.701 241.800, 195.492 238.500 C 194.541 223.507, 191.932 212.850, 186.733 202.713 C 181.772 193.042, 175.723 186.202, 169.371 183.084 C 166.692 181.769, 162.164 178.512, 159.310 175.846 C 156.455 173.181, 153.454 171, 152.641 171 C 150.063 171, 129.532 160.230, 123.140 155.524 C 119.760 153.036, 116.820 151, 116.607 151 C 116.393 151, 117.904 155.838, 119.963 161.750 M 106.412 169.570 C 98.425 182.055, 91.940 199.090, 91.822 207.894 C 91.726 215.135, 102.235 238.578, 112.716 254.500 C 131.040 282.337, 160.039 308.283, 185.329 319.467 L 190.899 321.930 188.896 317.215 C 184.921 307.854, 166.110 271.225, 159 259 C 146.572 237.631, 139.855 227.745, 138.609 228.991 C 137.862 229.738, 137.517 237.180, 137.551 251.800 C 137.602 273.118, 137.896 275.668, 141.440 285.500 C 143.086 290.069, 137.397 281.817, 135.084 276.281 C 131.851 268.544, 131.123 249.769, 133.393 232.684 L 134.963 220.869 132.086 215.170 C 128.003 207.082, 120.987 190.436, 115.997 177 C 113.648 170.675, 111.370 165.104, 110.934 164.620 C 110.498 164.137, 108.463 166.364, 106.412 169.570 M 163.265 248.686 C 163.520 249.134, 166.418 254.225, 169.706 260 C 172.994 265.775, 178.519 275.850, 181.983 282.389 L 188.282 294.277 190.662 290.389 C 191.971 288.250, 193.988 283.424, 195.144 279.664 L 197.247 272.828 192.874 268.368 C 190.468 265.915, 185.350 261.759, 181.500 259.133 C 173.717 253.822, 162.548 247.423, 163.265 248.686" stroke="none" fill="#dbdc19" fill-rule="evenodd"/></svg>