<svg xmlns="http://www.w3.org/2000/svg" width="512" height="512" viewBox="0 0 512 512" version="1.1"><path d="M 344.776 1.980 C 327.868 5.545, 313.480 11.516, 300.079 20.527 C 281.453 33.051, 264.707 53.724, 256.421 74.421 L 253.787 81 246.985 81 C 236.222 81, 216.677 83.877, 202.026 87.617 C 165.796 96.867, 133.911 114.739, 106.446 141.192 C 87.470 159.470, 74.497 177.200, 62.543 201.196 C 32.771 260.958, 32.771 332.042, 62.543 391.804 C 74.519 415.844, 87.466 433.527, 106.554 451.912 C 147.542 491.390, 198.786 511.991, 256 511.991 C 313.214 511.991, 364.458 491.390, 405.446 451.912 C 424.521 433.539, 437.482 415.843, 449.434 391.852 C 483.647 323.175, 478.222 240.572, 435.309 176.782 C 418.524 151.830, 398.925 132.420, 373.973 116.036 C 364.906 110.082, 344.211 99.257, 335 95.651 L 330.500 93.889 334.566 90.194 C 341.577 83.824, 350.934 72.949, 355.741 65.584 C 365.566 50.529, 372.911 29.797, 374.527 12.560 C 375.191 5.474, 375.104 5.013, 372.657 2.566 C 370.300 0.209, 369.415 0.006, 361.795 0.070 C 357.233 0.109, 349.574 0.968, 344.776 1.980 M 346 18.426 C 311.090 26.175, 283.005 50.713, 269.831 84.974 C 269.258 86.462, 273.649 82.778, 280.856 75.724 C 290.985 65.808, 293.314 64, 295.961 64 C 300.173 64, 304 67.865, 304 72.119 C 304 74.889, 302.263 77.084, 291.299 88.164 C 284.314 95.224, 278.878 101, 279.220 101 C 279.561 101, 283.814 99.612, 288.670 97.916 C 316.320 88.260, 338.696 67.545, 350.048 41.095 C 353.345 33.413, 357 21.370, 357 18.186 C 357 16.732, 353.264 16.813, 346 18.426 M 237.301 98.066 C 212.559 100.461, 190.347 106.950, 166.737 118.682 C 116.060 143.863, 78.345 190.092, 63.459 245.278 C 58.402 264.024, 56.710 279.427, 57.282 301.500 C 57.947 327.183, 60.777 342.569, 68.984 365.123 C 93.460 432.385, 152.795 481.108, 225.500 493.646 C 239.412 496.045, 272.588 496.045, 286.500 493.646 C 329.330 486.260, 366.465 467.330, 396.298 437.678 C 422.419 411.715, 440.498 379.931, 449.476 344.187 C 453.411 328.521, 454.963 315.175, 454.963 297 C 454.963 264.942, 448.683 237.299, 435.084 209.500 C 412.073 162.462, 372.404 126.726, 323.596 109.067 L 312.692 105.122 308.096 107.448 C 296.217 113.458, 278.421 118.210, 262.944 119.503 C 248.801 120.685, 246.393 117.107, 249.644 99.750 C 250.228 96.630, 251.023 96.738, 237.301 98.066 M 338.455 139.455 C 333.218 144.691, 335.823 149.185, 348.863 157.413 C 358.722 163.634, 361.866 164.225, 365.545 160.545 C 370.763 155.328, 367.612 149.941, 354.697 141.993 C 345.508 136.338, 342.103 135.806, 338.455 139.455 M 378.635 170.073 C 376.627 171.652, 376.007 173.021, 376.029 175.823 C 376.053 178.916, 377.246 180.920, 383.537 188.436 C 393.751 200.638, 400.008 210.290, 407.037 224.689 C 410.310 231.393, 413.990 237.580, 415.216 238.439 C 418.457 240.709, 421.734 240.357, 424.667 237.424 C 428.257 233.834, 427.530 229.964, 420.652 216.041 C 413.589 201.744, 402.104 184.610, 393.309 175.250 C 385.806 167.265, 383.320 166.387, 378.635 170.073 M 108.923 394.923 C 105.207 398.640, 105.250 400.502, 109.195 406.579 C 114.189 414.269, 139.354 438.741, 150 446.259 C 162.296 454.943, 182.413 465.297, 185.351 464.454 C 188.352 463.594, 192 459.321, 192 456.667 C 192 452.788, 189.086 450.063, 180.126 445.563 C 161.532 436.225, 142.216 421.143, 130 406.425 C 116.741 390.450, 114.577 389.269, 108.923 394.923" stroke="none" fill="#32362f" fill-rule="evenodd"/><path d="M 346 18.426 C 311.090 26.175, 283.005 50.713, 269.831 84.974 C 269.258 86.462, 273.649 82.778, 280.856 75.724 C 290.985 65.808, 293.314 64, 295.961 64 C 300.173 64, 304 67.865, 304 72.119 C 304 74.889, 302.263 77.084, 291.299 88.164 C 284.314 95.224, 278.878 101, 279.220 101 C 279.561 101, 283.814 99.612, 288.670 97.916 C 316.320 88.260, 338.696 67.545, 350.048 41.095 C 353.345 33.413, 357 21.370, 357 18.186 C 357 16.732, 353.264 16.813, 346 18.426 M 237.301 98.066 C 212.559 100.461, 190.347 106.950, 166.737 118.682 C 116.060 143.863, 78.345 190.092, 63.459 245.278 C 58.402 264.024, 56.710 279.427, 57.282 301.500 C 57.947 327.183, 60.777 342.569, 68.984 365.123 C 93.460 432.385, 152.795 481.108, 225.500 493.646 C 239.412 496.045, 272.588 496.045, 286.500 493.646 C 329.330 486.260, 366.465 467.330, 396.298 437.678 C 422.419 411.715, 440.498 379.931, 449.476 344.187 C 453.411 328.521, 454.963 315.175, 454.963 297 C 454.963 264.942, 448.683 237.299, 435.084 209.500 C 412.073 162.462, 372.404 126.726, 323.596 109.067 L 312.692 105.122 308.096 107.448 C 296.217 113.458, 278.421 118.210, 262.944 119.503 C 248.801 120.685, 246.393 117.107, 249.644 99.750 C 250.228 96.630, 251.023 96.738, 237.301 98.066 M 338.455 139.455 C 333.218 144.691, 335.823 149.185, 348.863 157.413 C 358.722 163.634, 361.866 164.225, 365.545 160.545 C 370.763 155.328, 367.612 149.941, 354.697 141.993 C 345.508 136.338, 342.103 135.806, 338.455 139.455 M 378.635 170.073 C 376.627 171.652, 376.007 173.021, 376.029 175.823 C 376.053 178.916, 377.246 180.920, 383.537 188.436 C 393.751 200.638, 400.008 210.290, 407.037 224.689 C 410.310 231.393, 413.990 237.580, 415.216 238.439 C 418.457 240.709, 421.734 240.357, 424.667 237.424 C 428.257 233.834, 427.530 229.964, 420.652 216.041 C 413.589 201.744, 402.104 184.610, 393.309 175.250 C 385.806 167.265, 383.320 166.387, 378.635 170.073 M 108.923 394.923 C 105.207 398.640, 105.250 400.502, 109.195 406.579 C 114.189 414.269, 139.354 438.741, 150 446.259 C 162.296 454.943, 182.413 465.297, 185.351 464.454 C 188.352 463.594, 192 459.321, 192 456.667 C 192 452.788, 189.086 450.063, 180.126 445.563 C 161.532 436.225, 142.216 421.143, 130 406.425 C 116.741 390.450, 114.577 389.269, 108.923 394.923" stroke="none" fill="#faa45c" fill-rule="evenodd"/></svg>